<?xml version="1.0" encoding="utf-8"?>
<!-- Generator: Adobe Illustrator 23.0.3, SVG Export Plug-In . SVG Version: 6.00 Build 0)  -->
<svg version="1.1" id="Layer_1" xmlns="http://www.w3.org/2000/svg" xmlns:xlink="http://www.w3.org/1999/xlink" x="0px" y="0px"
	 viewBox="0 0 500 500" style="enable-background:new 0 0 500 500;" xml:space="preserve">
<style type="text/css">
	.st0{display:none;}
	.st1{display:inline;fill:#FFF200;}
	.st2{display:inline;fill:#80DE2A;}
	.st3{display:inline;fill:#00CB54;}
</style>
<path d="M319.53,314.92l3.86-11.1c1.88,1.59,3.27,2.18,6.14,2.18c3.57,0,5.85-2.38,5.85-7.53v-47.47h15.26v47.47
	c0,11.59-5.75,19.82-18.53,19.82C325.57,318.29,323.19,317.3,319.53,314.92z M334.29,237.93c0-4.85,3.86-8.72,8.72-8.72
	c4.86,0,8.82,3.86,8.82,8.72c0,4.86-3.96,8.82-8.82,8.82C338.16,246.75,334.29,242.78,334.29,237.93z"/>
<path d="M358.57,292.63l6.34-10.9c3.57,3.17,11.2,6.44,16.85,6.44c4.56,0,6.44-1.29,6.44-3.37c0-5.95-27.85,0.2-27.85-19.22
	c0-8.42,7.33-15.76,20.51-15.76c8.13,0,14.86,2.58,20.02,6.34l-5.85,10.8c-2.87-2.78-8.32-5.25-14.07-5.25
	c-3.57,0-5.95,1.39-5.95,3.27c0,5.25,27.75-0.2,27.75,19.42c0,9.12-8.03,15.66-21.7,15.66
	C372.44,300.06,363.62,297.18,358.57,292.63z"/>
<path d="M328.4,371.95v25.47h-7.43v-66.1h7.43v7.13c3.47-4.85,9.41-8.32,16.15-8.32c12.59,0,21.31,9.51,21.31,25.07
	c0,15.46-8.72,25.17-21.31,25.17C338.01,380.37,332.36,377.2,328.4,371.95z M358.03,355.2c0-10.6-5.75-18.43-15.36-18.43
	c-5.85,0-11.69,3.47-14.27,7.63v21.6c2.58,4.16,8.42,7.73,14.27,7.73C352.28,373.73,358.03,365.81,358.03,355.2z"/>
<path d="M378.54,379.19v-47.86h7.43v7.63c3.86-4.96,9.41-8.72,15.95-8.72v7.63c-0.89-0.1-1.78-0.2-2.87-0.2
	c-4.66,0-10.9,3.77-13.08,7.63v33.89H378.54z"/>
<path d="M409.35,355.2c0-13.87,9.12-25.07,23.68-25.07c14.57,0,23.68,11.2,23.68,25.07c0,13.87-9.12,25.17-23.68,25.17
	C418.47,380.37,409.35,369.08,409.35,355.2z M448.89,355.2c0-9.71-5.65-18.43-15.86-18.43c-10.21,0-15.86,8.72-15.86,18.43
	c0,9.81,5.65,18.53,15.86,18.53C443.24,373.73,448.89,365.01,448.89,355.2z"/>
<g>
	<circle cx="477.65" cy="367.69" r="11.5"/>
</g>
<g class="st0">
	<path class="st1" d="M100.73,167.24c2.45-7.66,6.36-14.6,11.63-20.64c5.2-5.96,11.38-10.81,18.38-14.42
		c6.95-3.58,14.46-5.77,22.33-6.52c7.96-0.76,15.9,0.1,23.6,2.56c15.43,4.94,27.19,14.97,34.95,29.81c1.08,2.15,1.99,4.31,2.81,6.48
		c-3.74,0.82-7.39,1.92-10.91,3.34c-11.25,4.52-21.3,10.86-29.87,18.84c-8.29,7.72-16.19,17.21-23.56,28.1
		c-0.53,0.79-1.09,1.52-1.61,2.33c-1.78,2.74-3.57,5.37-5.34,7.91c-1.97,2.81-3.93,5.5-5.85,8.01c-1.32,1.72-2.81,3.49-4.33,5.25
		c-1.83-1.42-3.77-2.97-5.82-4.67c-4.13-3.42-7.71-6.69-10.63-9.73c-3.02-3.15-6.01-6.87-8.88-11.05
		c-3.11-4.51-5.44-9.09-6.95-13.59c-1.52-4.56-2.36-9.64-2.48-15.08C98.06,178.6,98.92,172.9,100.73,167.24z"/>
	<path class="st2" d="M166.17,253.51c-1.13,1.48-2.59,3.49-4.4,6.02c-1.58-1.3-3.1-2.64-4.74-3.89c-1.48-1.13-3.49-2.59-6.03-4.4
		c1.3-1.58,2.64-3.1,3.89-4.75c1.13-1.48,2.59-3.49,4.4-6.03c1.58,1.3,3.1,2.64,4.75,3.89c1.48,1.13,3.49,2.59,6.02,4.4
		C168.76,250.34,167.42,251.87,166.17,253.51z"/>
	<path class="st3" d="M57.13,298.17c-5.96-5.2-10.81-11.38-14.41-18.38c-3.57-6.94-5.77-14.45-6.52-22.33
		c-0.77-7.95,0.1-15.89,2.56-23.6c4.94-15.43,14.97-27.19,29.81-34.95c2.15-1.08,4.31-1.99,6.48-2.81
		c0.82,3.74,1.92,7.38,3.34,10.91c4.52,11.26,10.86,21.3,18.84,29.88c7.72,8.29,17.21,16.19,28.1,23.56
		c0.79,0.53,1.52,1.09,2.33,1.61c2.74,1.78,5.37,3.57,7.91,5.34c2.81,1.97,5.51,3.93,8.01,5.85c1.72,1.32,3.49,2.81,5.25,4.33
		c-1.42,1.84-2.98,3.77-4.67,5.82c-3.42,4.13-6.69,7.71-9.73,10.63c-3.15,3.01-6.86,6-11.04,8.88c-4.53,3.11-9.1,5.44-13.6,6.94
		c-4.56,1.52-9.63,2.35-15.07,2.48c-5.57,0.13-11.26-0.72-16.93-2.53C70.11,307.35,63.16,303.43,57.13,298.17z"/>
	<path class="st3" d="M220.33,332.76c-2.45,7.66-6.37,14.61-11.63,20.64c-5.2,5.96-11.38,10.81-18.38,14.41
		c-6.94,3.57-14.45,5.77-22.33,6.52c-7.95,0.77-15.89-0.1-23.6-2.56c-15.43-4.94-27.19-14.97-34.95-29.81
		c-1.08-2.15-1.99-4.31-2.81-6.48c3.74-0.82,7.39-1.92,10.91-3.34c11.25-4.52,21.29-10.86,29.86-18.84
		c8.29-7.72,16.19-17.2,23.56-28.1c0.53-0.79,1.09-1.52,1.61-2.33c1.79-2.76,3.57-5.38,5.34-7.91c1.98-2.83,3.94-5.52,5.85-8.01
		c1.29-1.69,2.79-3.46,4.33-5.25c1.84,1.42,3.78,2.98,5.82,4.67c4.13,3.42,7.71,6.69,10.63,9.73c3.01,3.15,6,6.86,8.88,11.04
		c3.11,4.53,5.44,9.1,6.94,13.6c1.52,4.55,2.35,9.63,2.48,15.07C223,321.4,222.14,327.1,220.33,332.76z"/>
	<path class="st1" d="M282.3,266.14c-4.94,15.43-14.97,27.19-29.81,34.95c-2.15,1.08-4.31,1.99-6.48,2.81
		c-0.82-3.74-1.92-7.39-3.34-10.91c-4.52-11.25-10.86-21.29-18.84-29.86c-7.72-8.29-17.2-16.19-28.1-23.56
		c-0.79-0.53-1.52-1.09-2.33-1.61c-2.76-1.79-5.38-3.57-7.91-5.34c-2.83-1.98-5.52-3.94-8.01-5.85c-1.69-1.29-3.46-2.79-5.25-4.32
		c1.42-1.83,2.97-3.77,4.67-5.82c3.42-4.13,6.69-7.71,9.73-10.63c3.15-3.02,6.87-6.01,11.05-8.88c4.51-3.11,9.09-5.44,13.59-6.95
		c4.56-1.52,9.64-2.36,15.08-2.48c5.57-0.13,11.26,0.72,16.92,2.54c7.66,2.45,14.6,6.36,20.64,11.63
		c5.96,5.2,10.81,11.38,14.42,18.38c3.58,6.95,5.77,14.46,6.52,22.33C285.62,250.51,284.76,258.45,282.3,266.14z"/>
</g>
<path d="M306.07,273.26c-3.19,9.97-8.02,19.04-14.34,26.95c-6.34,7.94-13.91,14.62-22.5,19.86c-7.23,4.42-14.69,7.49-22.43,9.53
	c-0.57,3.71-1.41,7.41-2.57,11.05c-3.51,10.98-8.97,20.82-16.22,29.28c-7.27,8.47-15.9,15.3-25.67,20.29
	c-9.84,5.07-20.5,8.14-31.69,9.13c-11.15,0.99-22.37-0.29-33.37-3.81c-9.97-3.19-19.04-8.01-26.95-14.33
	c-7.95-6.35-14.63-13.92-19.86-22.52c-4.42-7.23-7.49-14.69-9.53-22.42c-3.71-0.57-7.41-1.41-11.05-2.57
	c-10.98-3.51-20.82-8.97-29.28-16.22c-8.48-7.27-15.3-15.9-20.29-25.67c-5.07-9.84-8.14-20.5-9.13-31.69
	c-0.99-11.15,0.29-22.37,3.81-33.37c3.19-9.97,8.01-19.04,14.33-26.95c6.35-7.95,13.92-14.63,22.52-19.86
	c7.23-4.42,14.69-7.49,22.42-9.53c0.57-3.71,1.4-7.41,2.57-11.05c3.51-10.97,8.97-20.82,16.22-29.28
	c7.27-8.48,15.89-15.3,25.68-20.29c9.83-5.07,20.49-8.14,31.69-9.13c11.15-0.99,22.37,0.29,33.37,3.81
	c9.97,3.19,19.04,8.02,26.95,14.34c7.94,6.34,14.62,13.91,19.86,22.5c4.42,7.23,7.49,14.7,9.53,22.43
	c3.71,0.57,7.41,1.41,11.05,2.57c10.97,3.51,20.82,8.97,29.28,16.22c8.48,7.27,15.3,15.89,20.29,25.68
	c5.07,9.83,8.14,20.49,9.13,31.69C310.87,251.04,309.59,262.27,306.07,273.26z M98.19,184.16c0.12,5.45,0.96,10.52,2.48,15.08
	c1.5,4.5,3.84,9.08,6.95,13.59c2.88,4.18,5.86,7.89,8.88,11.05c2.92,3.04,6.5,6.31,10.63,9.73c2.05,1.69,3.99,3.25,5.82,4.67
	c1.52-1.76,3-3.53,4.33-5.25c1.92-2.5,3.88-5.19,5.85-8.01c1.77-2.53,3.56-5.16,5.34-7.91c0.53-0.8,1.08-1.54,1.61-2.33
	c7.37-10.89,15.27-20.38,23.56-28.1c8.57-7.98,18.62-14.32,29.87-18.84c3.52-1.42,7.17-2.52,10.91-3.34
	c-0.82-2.16-1.73-4.32-2.81-6.48c-7.76-14.84-19.52-24.87-34.95-29.81c-7.69-2.46-15.63-3.33-23.6-2.56
	c-7.87,0.75-15.38,2.94-22.33,6.52c-7,3.6-13.19,8.46-18.38,14.42c-5.26,6.04-9.18,12.98-11.63,20.64
	C98.92,172.9,98.06,178.6,98.19,184.16z M170.06,248.76c-2.53-1.81-4.54-3.28-6.02-4.4c-1.64-1.25-3.17-2.59-4.75-3.89
	c-1.81,2.53-3.27,4.54-4.4,6.03c-1.25,1.64-2.59,3.16-3.89,4.75c2.53,1.81,4.54,3.27,6.03,4.4c1.64,1.25,3.16,2.59,4.74,3.89
	c1.81-2.53,3.28-4.54,4.4-6.02C167.42,251.87,168.76,250.34,170.06,248.76z M77.77,309.8c5.66,1.81,11.35,2.67,16.93,2.53
	c5.45-0.13,10.52-0.96,15.07-2.48c4.5-1.5,9.08-3.84,13.6-6.94c4.18-2.88,7.9-5.87,11.04-8.88c3.04-2.92,6.31-6.5,9.73-10.63
	c1.69-2.05,3.25-3.99,4.67-5.82c-1.76-1.52-3.53-3-5.25-4.33c-2.5-1.92-5.19-3.88-8.01-5.85c-2.53-1.77-5.16-3.56-7.91-5.34
	c-0.8-0.53-1.54-1.08-2.33-1.61c-10.89-7.37-20.38-15.27-28.1-23.56c-7.98-8.57-14.32-18.62-18.84-29.88
	c-1.42-3.52-2.52-7.17-3.34-10.91c-2.16,0.82-4.32,1.73-6.48,2.81c-14.84,7.76-24.87,19.52-29.81,34.95
	c-2.47,7.71-3.33,15.65-2.56,23.6c0.75,7.88,2.95,15.4,6.52,22.33c3.6,7,8.46,13.19,14.41,18.38
	C63.16,303.43,70.11,307.35,77.77,309.8z M222.86,315.83c-0.13-5.45-0.96-10.52-2.48-15.07c-1.5-4.5-3.84-9.08-6.94-13.6
	c-2.88-4.18-5.87-7.9-8.88-11.04c-2.92-3.04-6.5-6.31-10.63-9.73c-2.05-1.69-3.99-3.25-5.82-4.67c-1.54,1.78-3.03,3.56-4.33,5.25
	c-1.91,2.49-3.87,5.18-5.85,8.01c-1.77,2.52-3.55,5.15-5.34,7.91c-0.53,0.8-1.08,1.54-1.61,2.33c-7.38,10.9-15.28,20.39-23.56,28.1
	c-8.57,7.98-18.61,14.32-29.86,18.84c-3.53,1.42-7.18,2.52-10.91,3.34c0.82,2.16,1.73,4.32,2.81,6.48
	c7.76,14.84,19.52,24.87,34.95,29.81c7.71,2.47,15.65,3.33,23.6,2.56c7.88-0.75,15.4-2.95,22.33-6.52c7-3.6,13.19-8.46,18.38-14.41
	c5.26-6.03,9.18-12.98,11.63-20.64C222.14,327.1,223,321.4,222.86,315.83z M284.86,242.55c-0.75-7.87-2.94-15.38-6.52-22.33
	c-3.6-7-8.46-13.19-14.42-18.38c-6.04-5.26-12.98-9.18-20.64-11.63c-5.66-1.81-11.35-2.67-16.92-2.54
	c-5.45,0.12-10.52,0.96-15.08,2.48c-4.5,1.5-9.08,3.84-13.59,6.95c-4.18,2.88-7.89,5.86-11.05,8.88c-3.04,2.92-6.31,6.5-9.73,10.63
	c-1.69,2.05-3.25,3.99-4.67,5.82c1.78,1.53,3.56,3.03,5.25,4.32c2.49,1.91,5.18,3.87,8.01,5.85c2.52,1.77,5.15,3.55,7.91,5.34
	c0.8,0.53,1.54,1.08,2.33,1.61c10.9,7.38,20.39,15.28,28.1,23.56c7.98,8.57,14.32,18.61,18.84,29.86c1.42,3.53,2.52,7.18,3.34,10.91
	c2.16-0.82,4.32-1.73,6.48-2.81c14.84-7.76,24.87-19.52,29.81-34.95C284.76,258.45,285.62,250.51,284.86,242.55z"/>
</svg>
